<?xml version="1.0" encoding="iso-8859-1"?>
<!-- Generator: Adobe Illustrator 16.0.0, SVG Export Plug-In . SVG Version: 6.00 Build 0)  -->
<!DOCTYPE svg PUBLIC "-//W3C//DTD SVG 1.1//EN" "http://www.w3.org/Graphics/SVG/1.1/DTD/svg11.dtd">
<svg version="1.1" id="Capa_1" 
	xmlns="http://www.w3.org/2000/svg" 
	xmlns:xlink="http://www.w3.org/1999/xlink" x="0px" y="0px" width="124px" height="124px" viewBox="0 0 124 124" style="enable-background:new 0 0 124 124;" xml:space="preserve">
	<g>
		<path d="M21.2,0C17.8,0,15,2.8,15,6.2v111.6c0,3.4,2.8,6.2,6.2,6.2h81.6c3.4,0,6.2-2.8,6.2-6.2V34.4c0-5.5-2.2-10.8-6.1-14.7
		L89.3,6.1C85.4,2.2,80.1,0,74.6,0H44v1c0,3.3-2.4,6-5.7,6h-2C33,7,30,4.3,30,1V0H21.2z M30,55c0-3.3,2.7-6,6-6h2c3.3,0,6,2.7,6,6v2
		c0,3.3-2.7,6-6,6h-2c-3.3,0-6-2.7-6-6V55z M52.6,100H36.4c-3.5,0-6.2-2.9-6-6.4l1.2-20c0.2-3.199,2.8-5.6,6-5.6h13.7
		c3.2,0,5.8,2.5,6,5.6l1.2,20C58.8,97.1,56.1,100,52.6,100z M44,43v-2c0-3.3,2.7-6,6-6h2c3.3,0,6,2.7,6,6v2c0,3.3-2.7,6-6,6h-2
		C46.7,49,44,46.3,44,43z M44,13c0-3.3,2.7-6,6-6h2c3.3,0,6,2.7,6,6v2c0,3.3-2.7,6-6,6h-2c-3.3,0-6-2.7-6-6V13z M36,21h2
		c3.3,0,6,2.7,6,6v2c0,3.3-2.7,6-6,6h-2c-3.3,0-6-2.7-6-6v-2C30,23.7,32.7,21,36,21z" fill="#8BC34A"/>
		<path d="M51.5,87H37.6c-1.6,0-2.9,1.2-3,2.7l-0.2,2c-0.2,1.8,1.2,3.3,3,3.3h14.1c1.7,0,3.1-1.5,3-3.2l-0.1-2
		C54.3,88.2,53,87,51.5,87z" fill="#8BC34A"/>
	</g>
</svg>
