<?xml version="1.0" encoding="iso-8859-1"?>
<!-- Generator: Adobe Illustrator 16.0.0, SVG Export Plug-In . SVG Version: 6.00 Build 0)  -->
<!DOCTYPE svg PUBLIC "-//W3C//DTD SVG 1.1//EN" "http://www.w3.org/Graphics/SVG/1.1/DTD/svg11.dtd">
<svg version="1.1" id="Capa_1" 
	xmlns="http://www.w3.org/2000/svg" 
	xmlns:xlink="http://www.w3.org/1999/xlink" x="0px" y="0px" width="910.813px" height="910.814px" viewBox="0 0 910.813 910.814" style="enable-background:new 0 0 910.813 910.814;" xml:space="preserve">
	<g>
		<g>
			<g>
				<path d="M0,138.002V703.84c0,27.613,22.386,50,50,50h556.539v-99.251c-10.162-11.746-18.361-24.918-24.438-39.282
				c-7.762-18.352-11.694-37.825-11.694-57.885s3.934-39.533,11.694-57.885c7.49-17.709,18.207-33.604,31.853-47.252
				c13.646-13.645,29.543-24.361,47.252-31.852c18.352-7.762,37.826-11.697,57.885-11.697c20.06,0,39.533,3.936,57.885,11.697
				c17.709,7.49,33.605,18.206,47.252,31.852c13.646,13.646,24.361,29.543,31.853,47.252c7.762,18.352,11.697,37.825,11.697,57.885
				s-3.937,39.533-11.697,57.885c-6.076,14.364-14.275,27.536-24.438,39.282v99.251h29.173c27.612,0,50-22.387,50-50V320.185l0,0
				H738.627c-33.084,0-60-26.916-60-60V88.002H50C22.385,88.002,0,110.388,0,138.002z M111.025,244.917h499.381v55H111.025V244.917z
				 M111.025,441.667h423.381v30H111.025V441.667z M111.025,535.667h249.69v30h-249.69V535.667z" fill="#FF7124"/>
				<path d="M708.627,92.699v167.487c0,16.568,13.432,30,30,30h167.508h4.678L708.627,87.994V92.699z" fill="#FF7124"/>
				<path d="M801.641,753.84v-72.729c-7.754,5.183-15.991,9.631-24.666,13.3c-18.352,7.761-37.825,11.697-57.885,11.697
				c-20.059,0-39.533-3.936-57.885-11.697c-8.674-3.669-16.912-8.118-24.666-13.3v72.729v68.979l82.549-32.881l82.551,32.881V753.84
				H801.641z" fill="#FF7124"/>
				<path d="M816.641,625.028c6.322-9.105,11.406-19.138,15-29.854c3.976-11.858,6.134-24.554,6.134-37.753
				c0-65.547-53.138-118.684-118.685-118.684s-118.684,53.138-118.684,118.686c0,13.197,2.158,25.893,6.133,37.752
				c3.594,10.717,8.678,20.747,15,29.854c4.422,6.367,9.449,12.281,15,17.658c21.361,20.685,50.467,33.422,82.551,33.422
				s61.189-12.736,82.551-33.422C807.191,637.309,812.219,631.395,816.641,625.028z" fill="#FF7124"/>
			</g>
		</g>
	</g>
</svg>
